<mxfile host="app.diagrams.net" agent="Mozilla/5.0 (Windows NT 10.0; Win64; x64) AppleWebKit/537.36 (KHTML, like Gecko) Chrome/137.0.0.0 Safari/537.36" version="27.1.6">
  <diagram name="Page-1" id="QT09Z66isRcmfOBsZCpm">
    <mxGraphModel dx="1869" dy="622" grid="0" gridSize="10" guides="1" tooltips="1" connect="1" arrows="1" fold="1" page="1" pageScale="1" pageWidth="827" pageHeight="1169" math="0" shadow="0">
      <root>
        <mxCell id="0" />
        <mxCell id="1" parent="0" />
        <mxCell id="C5yaauLDrXDxsBTMb6eG-1" value="" style="rounded=1;whiteSpace=wrap;html=1;fillColor=none;" parent="1" vertex="1">
          <mxGeometry x="-70" y="125" width="729" height="654" as="geometry" />
        </mxCell>
        <mxCell id="cF8QfP8WDfPO8UW3AcHy-6" style="edgeStyle=orthogonalEdgeStyle;rounded=0;orthogonalLoop=1;jettySize=auto;html=1;entryX=0.5;entryY=0;entryDx=0;entryDy=0;" parent="1" source="cF8QfP8WDfPO8UW3AcHy-2" target="cF8QfP8WDfPO8UW3AcHy-3" edge="1">
          <mxGeometry relative="1" as="geometry" />
        </mxCell>
        <mxCell id="cF8QfP8WDfPO8UW3AcHy-13" value="Images&amp;nbsp;&lt;div&gt;&lt;br style=&quot;font-size: 12px; text-wrap-mode: wrap; background-color: rgb(236, 236, 236);&quot;&gt;&lt;/div&gt;" style="edgeLabel;html=1;align=center;verticalAlign=middle;resizable=0;points=[];" parent="cF8QfP8WDfPO8UW3AcHy-6" vertex="1" connectable="0">
          <mxGeometry x="-0.3604" y="-3" relative="1" as="geometry">
            <mxPoint as="offset" />
          </mxGeometry>
        </mxCell>
        <mxCell id="cF8QfP8WDfPO8UW3AcHy-12" style="edgeStyle=orthogonalEdgeStyle;rounded=0;orthogonalLoop=1;jettySize=auto;html=1;exitX=0;exitY=0;exitDx=0;exitDy=67.5;exitPerimeter=0;" parent="1" source="cF8QfP8WDfPO8UW3AcHy-2" target="cF8QfP8WDfPO8UW3AcHy-9" edge="1">
          <mxGeometry relative="1" as="geometry" />
        </mxCell>
        <mxCell id="cF8QfP8WDfPO8UW3AcHy-14" value="images" style="edgeLabel;html=1;align=center;verticalAlign=middle;resizable=0;points=[];" parent="cF8QfP8WDfPO8UW3AcHy-12" vertex="1" connectable="0">
          <mxGeometry x="0.285" relative="1" as="geometry">
            <mxPoint as="offset" />
          </mxGeometry>
        </mxCell>
        <mxCell id="cF8QfP8WDfPO8UW3AcHy-2" value="DB" style="shape=cylinder3;whiteSpace=wrap;html=1;boundedLbl=1;backgroundOutline=1;size=15;" parent="1" vertex="1">
          <mxGeometry x="344" y="120" width="76" height="100" as="geometry" />
        </mxCell>
        <mxCell id="cF8QfP8WDfPO8UW3AcHy-8" style="edgeStyle=orthogonalEdgeStyle;rounded=0;orthogonalLoop=1;jettySize=auto;html=1;entryX=0;entryY=0.5;entryDx=0;entryDy=0;" parent="1" source="cF8QfP8WDfPO8UW3AcHy-3" target="cF8QfP8WDfPO8UW3AcHy-9" edge="1">
          <mxGeometry relative="1" as="geometry">
            <mxPoint x="380" y="310" as="targetPoint" />
          </mxGeometry>
        </mxCell>
        <mxCell id="cF8QfP8WDfPO8UW3AcHy-11" value="en:snacks" style="edgeLabel;html=1;align=center;verticalAlign=middle;resizable=0;points=[];" parent="cF8QfP8WDfPO8UW3AcHy-8" vertex="1" connectable="0">
          <mxGeometry x="0.0686" y="1" relative="1" as="geometry">
            <mxPoint as="offset" />
          </mxGeometry>
        </mxCell>
        <mxCell id="cF8QfP8WDfPO8UW3AcHy-3" value="Category (Multimodal) Classification model&amp;nbsp;" style="rounded=1;whiteSpace=wrap;html=1;fillColor=#f8cecc;strokeColor=#b85450;" parent="1" vertex="1">
          <mxGeometry x="20" y="280" width="120" height="60" as="geometry" />
        </mxCell>
        <mxCell id="cF8QfP8WDfPO8UW3AcHy-16" style="edgeStyle=orthogonalEdgeStyle;rounded=0;orthogonalLoop=1;jettySize=auto;html=1;entryX=0.5;entryY=0;entryDx=0;entryDy=0;" parent="1" source="cF8QfP8WDfPO8UW3AcHy-9" target="cF8QfP8WDfPO8UW3AcHy-15" edge="1">
          <mxGeometry relative="1" as="geometry" />
        </mxCell>
        <mxCell id="cF8QfP8WDfPO8UW3AcHy-19" value="OCR extraction" style="edgeLabel;html=1;align=center;verticalAlign=middle;resizable=0;points=[];" parent="cF8QfP8WDfPO8UW3AcHy-16" vertex="1" connectable="0">
          <mxGeometry x="0.1271" y="-1" relative="1" as="geometry">
            <mxPoint as="offset" />
          </mxGeometry>
        </mxCell>
        <mxCell id="cF8QfP8WDfPO8UW3AcHy-18" style="edgeStyle=orthogonalEdgeStyle;rounded=0;orthogonalLoop=1;jettySize=auto;html=1;exitX=0.75;exitY=1;exitDx=0;exitDy=0;entryX=0.5;entryY=0;entryDx=0;entryDy=0;" parent="1" source="cF8QfP8WDfPO8UW3AcHy-9" target="cF8QfP8WDfPO8UW3AcHy-17" edge="1">
          <mxGeometry relative="1" as="geometry" />
        </mxCell>
        <mxCell id="cF8QfP8WDfPO8UW3AcHy-20" value="photos + titles" style="edgeLabel;html=1;align=center;verticalAlign=middle;resizable=0;points=[];" parent="cF8QfP8WDfPO8UW3AcHy-18" vertex="1" connectable="0">
          <mxGeometry x="-0.0111" y="-3" relative="1" as="geometry">
            <mxPoint x="-6" as="offset" />
          </mxGeometry>
        </mxCell>
        <mxCell id="cF8QfP8WDfPO8UW3AcHy-9" value="Get Specific Category data" style="rounded=1;whiteSpace=wrap;html=1;" parent="1" vertex="1">
          <mxGeometry x="240" y="280" width="120" height="60" as="geometry" />
        </mxCell>
        <mxCell id="cF8QfP8WDfPO8UW3AcHy-27" style="edgeStyle=orthogonalEdgeStyle;rounded=0;orthogonalLoop=1;jettySize=auto;html=1;entryX=0.5;entryY=0;entryDx=0;entryDy=0;" parent="1" source="cF8QfP8WDfPO8UW3AcHy-15" target="cF8QfP8WDfPO8UW3AcHy-25" edge="1">
          <mxGeometry relative="1" as="geometry" />
        </mxCell>
        <mxCell id="cF8QfP8WDfPO8UW3AcHy-15" value="OCR from images" style="rounded=1;whiteSpace=wrap;html=1;" parent="1" vertex="1">
          <mxGeometry x="140" y="410" width="120" height="60" as="geometry" />
        </mxCell>
        <mxCell id="cF8QfP8WDfPO8UW3AcHy-28" style="edgeStyle=orthogonalEdgeStyle;rounded=0;orthogonalLoop=1;jettySize=auto;html=1;" parent="1" source="cF8QfP8WDfPO8UW3AcHy-17" target="cF8QfP8WDfPO8UW3AcHy-26" edge="1">
          <mxGeometry relative="1" as="geometry" />
        </mxCell>
        <mxCell id="cF8QfP8WDfPO8UW3AcHy-17" value="Photos of the food items alone from images" style="rounded=1;whiteSpace=wrap;html=1;" parent="1" vertex="1">
          <mxGeometry x="344" y="410" width="120" height="60" as="geometry" />
        </mxCell>
        <mxCell id="cF8QfP8WDfPO8UW3AcHy-24" style="edgeStyle=orthogonalEdgeStyle;rounded=0;orthogonalLoop=1;jettySize=auto;html=1;" parent="1" source="cF8QfP8WDfPO8UW3AcHy-23" edge="1">
          <mxGeometry relative="1" as="geometry">
            <mxPoint x="370" y="380" as="targetPoint" />
            <Array as="points">
              <mxPoint x="371" y="330" />
            </Array>
          </mxGeometry>
        </mxCell>
        <mxCell id="cF8QfP8WDfPO8UW3AcHy-23" value="Photos extractor (Bounding box models)" style="rounded=1;whiteSpace=wrap;html=1;fillColor=#f8cecc;strokeColor=#b85450;" parent="1" vertex="1">
          <mxGeometry x="420" y="280" width="120" height="60" as="geometry" />
        </mxCell>
        <mxCell id="cF8QfP8WDfPO8UW3AcHy-36" style="edgeStyle=orthogonalEdgeStyle;rounded=0;orthogonalLoop=1;jettySize=auto;html=1;" parent="1" source="cF8QfP8WDfPO8UW3AcHy-25" target="cF8QfP8WDfPO8UW3AcHy-35" edge="1">
          <mxGeometry relative="1" as="geometry" />
        </mxCell>
        <mxCell id="C5yaauLDrXDxsBTMb6eG-34" style="edgeStyle=orthogonalEdgeStyle;rounded=0;orthogonalLoop=1;jettySize=auto;html=1;exitX=0.75;exitY=1;exitDx=0;exitDy=0;" parent="1" source="cF8QfP8WDfPO8UW3AcHy-25" target="C5yaauLDrXDxsBTMb6eG-32" edge="1">
          <mxGeometry relative="1" as="geometry" />
        </mxCell>
        <mxCell id="cF8QfP8WDfPO8UW3AcHy-25" value="Entity Extraction models from Images (Ingredients, Nutriments (if present))" style="rounded=1;whiteSpace=wrap;html=1;fillColor=#f8cecc;strokeColor=#b85450;" parent="1" vertex="1">
          <mxGeometry x="142" y="501" width="120" height="75" as="geometry" />
        </mxCell>
        <mxCell id="cF8QfP8WDfPO8UW3AcHy-33" style="edgeStyle=orthogonalEdgeStyle;rounded=0;orthogonalLoop=1;jettySize=auto;html=1;" parent="1" source="cF8QfP8WDfPO8UW3AcHy-26" target="cF8QfP8WDfPO8UW3AcHy-32" edge="1">
          <mxGeometry relative="1" as="geometry" />
        </mxCell>
        <mxCell id="cF8QfP8WDfPO8UW3AcHy-26" value="LLAVA Chef (finetuned on top of the images)" style="rounded=1;whiteSpace=wrap;html=1;fillColor=#f8cecc;strokeColor=#b85450;" parent="1" vertex="1">
          <mxGeometry x="344" y="633" width="120" height="60" as="geometry" />
        </mxCell>
        <mxCell id="C5yaauLDrXDxsBTMb6eG-47" style="edgeStyle=orthogonalEdgeStyle;rounded=0;orthogonalLoop=1;jettySize=auto;html=1;entryX=0.5;entryY=0;entryDx=0;entryDy=0;dashed=1;dashPattern=8 8;" parent="1" source="cF8QfP8WDfPO8UW3AcHy-32" target="C5yaauLDrXDxsBTMb6eG-46" edge="1">
          <mxGeometry relative="1" as="geometry" />
        </mxCell>
        <mxCell id="C5yaauLDrXDxsBTMb6eG-58" style="edgeStyle=orthogonalEdgeStyle;rounded=0;orthogonalLoop=1;jettySize=auto;html=1;entryX=0.75;entryY=1;entryDx=0;entryDy=0;" parent="1" source="cF8QfP8WDfPO8UW3AcHy-32" target="C5yaauLDrXDxsBTMb6eG-32" edge="1">
          <mxGeometry relative="1" as="geometry" />
        </mxCell>
        <mxCell id="C5yaauLDrXDxsBTMb6eG-59" value="Fill Incase&amp;nbsp;&lt;div&gt;the data is missing&lt;div&gt;&lt;br&gt;&lt;/div&gt;&lt;/div&gt;" style="edgeLabel;html=1;align=center;verticalAlign=middle;resizable=0;points=[];" parent="C5yaauLDrXDxsBTMb6eG-58" vertex="1" connectable="0">
          <mxGeometry x="-0.0601" y="2" relative="1" as="geometry">
            <mxPoint x="10" y="-12" as="offset" />
          </mxGeometry>
        </mxCell>
        <mxCell id="cF8QfP8WDfPO8UW3AcHy-32" value="Ingredients &amp;amp; Description" style="rounded=1;whiteSpace=wrap;html=1;fillColor=#d5e8d4;strokeColor=#82b366;" parent="1" vertex="1">
          <mxGeometry x="344" y="710" width="120" height="60" as="geometry" />
        </mxCell>
        <mxCell id="C5yaauLDrXDxsBTMb6eG-43" style="edgeStyle=orthogonalEdgeStyle;rounded=0;orthogonalLoop=1;jettySize=auto;html=1;entryX=0.5;entryY=0;entryDx=0;entryDy=0;dashed=1;dashPattern=8 8;" parent="1" source="cF8QfP8WDfPO8UW3AcHy-35" target="C5yaauLDrXDxsBTMb6eG-42" edge="1">
          <mxGeometry relative="1" as="geometry" />
        </mxCell>
        <mxCell id="cF8QfP8WDfPO8UW3AcHy-35" value="Nutriments with values" style="rounded=1;whiteSpace=wrap;html=1;fillColor=#e1d5e7;strokeColor=#9673a6;" parent="1" vertex="1">
          <mxGeometry x="61" y="626" width="120" height="60" as="geometry" />
        </mxCell>
        <mxCell id="C5yaauLDrXDxsBTMb6eG-45" style="edgeStyle=orthogonalEdgeStyle;rounded=0;orthogonalLoop=1;jettySize=auto;html=1;dashed=1;dashPattern=8 8;" parent="1" source="C5yaauLDrXDxsBTMb6eG-32" target="C5yaauLDrXDxsBTMb6eG-44" edge="1">
          <mxGeometry relative="1" as="geometry" />
        </mxCell>
        <mxCell id="C5yaauLDrXDxsBTMb6eG-32" value="Ingredients &amp;amp; contents" style="rounded=1;whiteSpace=wrap;html=1;fillColor=#d5e8d4;strokeColor=#82b366;" parent="1" vertex="1">
          <mxGeometry x="190" y="626" width="102" height="60" as="geometry" />
        </mxCell>
        <mxCell id="C5yaauLDrXDxsBTMb6eG-35" value="" style="endArrow=classic;startArrow=classic;html=1;rounded=0;" parent="1" source="C5yaauLDrXDxsBTMb6eG-32" target="cF8QfP8WDfPO8UW3AcHy-26" edge="1">
          <mxGeometry width="50" height="50" relative="1" as="geometry">
            <mxPoint x="442" y="582" as="sourcePoint" />
            <mxPoint x="492" y="532" as="targetPoint" />
          </mxGeometry>
        </mxCell>
        <mxCell id="C5yaauLDrXDxsBTMb6eG-36" value="RECALL" style="text;html=1;align=center;verticalAlign=middle;whiteSpace=wrap;rounded=0;" parent="1" vertex="1">
          <mxGeometry x="292" y="633" width="60" height="30" as="geometry" />
        </mxCell>
        <mxCell id="C5yaauLDrXDxsBTMb6eG-39" style="edgeStyle=orthogonalEdgeStyle;rounded=0;orthogonalLoop=1;jettySize=auto;html=1;entryX=0;entryY=0.5;entryDx=0;entryDy=0;" parent="1" source="C5yaauLDrXDxsBTMb6eG-37" target="C5yaauLDrXDxsBTMb6eG-38" edge="1">
          <mxGeometry relative="1" as="geometry" />
        </mxCell>
        <mxCell id="C5yaauLDrXDxsBTMb6eG-37" value="" style="shape=actor;whiteSpace=wrap;html=1;" parent="1" vertex="1">
          <mxGeometry x="-50" y="506" width="40" height="60" as="geometry" />
        </mxCell>
        <mxCell id="C5yaauLDrXDxsBTMb6eG-40" style="edgeStyle=orthogonalEdgeStyle;rounded=0;orthogonalLoop=1;jettySize=auto;html=1;entryX=0;entryY=0.5;entryDx=0;entryDy=0;" parent="1" source="C5yaauLDrXDxsBTMb6eG-38" target="cF8QfP8WDfPO8UW3AcHy-25" edge="1">
          <mxGeometry relative="1" as="geometry" />
        </mxCell>
        <mxCell id="C5yaauLDrXDxsBTMb6eG-38" value="Human Annotation" style="rounded=1;whiteSpace=wrap;html=1;" parent="1" vertex="1">
          <mxGeometry x="24" y="508.5" width="84" height="60" as="geometry" />
        </mxCell>
        <mxCell id="C5yaauLDrXDxsBTMb6eG-61" style="edgeStyle=orthogonalEdgeStyle;rounded=0;orthogonalLoop=1;jettySize=auto;html=1;" parent="1" source="C5yaauLDrXDxsBTMb6eG-42" target="C5yaauLDrXDxsBTMb6eG-57" edge="1">
          <mxGeometry relative="1" as="geometry" />
        </mxCell>
        <mxCell id="C5yaauLDrXDxsBTMb6eG-42" value="Nutriments with values" style="rounded=1;whiteSpace=wrap;html=1;fillColor=#e1d5e7;strokeColor=#9673a6;" parent="1" vertex="1">
          <mxGeometry x="-12" y="987" width="120" height="60" as="geometry" />
        </mxCell>
        <mxCell id="C5yaauLDrXDxsBTMb6eG-52" style="edgeStyle=orthogonalEdgeStyle;rounded=0;orthogonalLoop=1;jettySize=auto;html=1;entryX=0.5;entryY=0;entryDx=0;entryDy=0;" parent="1" source="C5yaauLDrXDxsBTMb6eG-44" target="C5yaauLDrXDxsBTMb6eG-50" edge="1">
          <mxGeometry relative="1" as="geometry" />
        </mxCell>
        <mxCell id="C5yaauLDrXDxsBTMb6eG-55" style="edgeStyle=orthogonalEdgeStyle;rounded=0;orthogonalLoop=1;jettySize=auto;html=1;exitX=0.75;exitY=1;exitDx=0;exitDy=0;entryX=0.75;entryY=0;entryDx=0;entryDy=0;" parent="1" source="C5yaauLDrXDxsBTMb6eG-44" target="C5yaauLDrXDxsBTMb6eG-53" edge="1">
          <mxGeometry relative="1" as="geometry">
            <Array as="points">
              <mxPoint x="284" y="869" />
              <mxPoint x="330" y="869" />
              <mxPoint x="330" y="965" />
              <mxPoint x="284" y="965" />
            </Array>
          </mxGeometry>
        </mxCell>
        <mxCell id="C5yaauLDrXDxsBTMb6eG-44" value="Ingredients with contents" style="rounded=1;whiteSpace=wrap;html=1;fillColor=#d5e8d4;strokeColor=#82b366;" parent="1" vertex="1">
          <mxGeometry x="194" y="791" width="120" height="60" as="geometry" />
        </mxCell>
        <mxCell id="C5yaauLDrXDxsBTMb6eG-62" style="edgeStyle=orthogonalEdgeStyle;rounded=0;orthogonalLoop=1;jettySize=auto;html=1;entryX=0.5;entryY=0;entryDx=0;entryDy=0;" parent="1" source="C5yaauLDrXDxsBTMb6eG-46" target="C5yaauLDrXDxsBTMb6eG-57" edge="1">
          <mxGeometry relative="1" as="geometry" />
        </mxCell>
        <mxCell id="C5yaauLDrXDxsBTMb6eG-46" value="Ingredients &amp;amp; Description" style="rounded=1;whiteSpace=wrap;html=1;fillColor=#d5e8d4;strokeColor=#82b366;" parent="1" vertex="1">
          <mxGeometry x="360" y="985" width="120" height="60" as="geometry" />
        </mxCell>
        <mxCell id="C5yaauLDrXDxsBTMb6eG-51" style="edgeStyle=orthogonalEdgeStyle;rounded=0;orthogonalLoop=1;jettySize=auto;html=1;entryX=0;entryY=0.5;entryDx=0;entryDy=0;" parent="1" source="C5yaauLDrXDxsBTMb6eG-49" target="C5yaauLDrXDxsBTMb6eG-50" edge="1">
          <mxGeometry relative="1" as="geometry" />
        </mxCell>
        <mxCell id="C5yaauLDrXDxsBTMb6eG-49" value="" style="shape=actor;whiteSpace=wrap;html=1;" parent="1" vertex="1">
          <mxGeometry x="120" y="894" width="40" height="60" as="geometry" />
        </mxCell>
        <mxCell id="C5yaauLDrXDxsBTMb6eG-54" style="edgeStyle=orthogonalEdgeStyle;rounded=0;orthogonalLoop=1;jettySize=auto;html=1;entryX=0.5;entryY=0;entryDx=0;entryDy=0;" parent="1" source="C5yaauLDrXDxsBTMb6eG-50" target="C5yaauLDrXDxsBTMb6eG-53" edge="1">
          <mxGeometry relative="1" as="geometry" />
        </mxCell>
        <mxCell id="C5yaauLDrXDxsBTMb6eG-50" value="Percent estimate annotation" style="rounded=1;whiteSpace=wrap;html=1;fillColor=#d5e8d4;strokeColor=#82b366;" parent="1" vertex="1">
          <mxGeometry x="196" y="885" width="120" height="60" as="geometry" />
        </mxCell>
        <mxCell id="C5yaauLDrXDxsBTMb6eG-63" style="edgeStyle=orthogonalEdgeStyle;rounded=0;orthogonalLoop=1;jettySize=auto;html=1;" parent="1" source="C5yaauLDrXDxsBTMb6eG-53" edge="1">
          <mxGeometry relative="1" as="geometry">
            <mxPoint x="268.5999755859375" y="1065.9999694824219" as="targetPoint" />
          </mxGeometry>
        </mxCell>
        <mxCell id="C5yaauLDrXDxsBTMb6eG-53" value="Ingredients with Percent estiamate" style="rounded=1;whiteSpace=wrap;html=1;fillColor=#d5e8d4;strokeColor=#82b366;" parent="1" vertex="1">
          <mxGeometry x="194" y="985" width="136" height="51" as="geometry" />
        </mxCell>
        <mxCell id="C5yaauLDrXDxsBTMb6eG-57" value="Machine learning Models with Y as Nutriments Values considering both Ingredients with percent estimate and their description" style="rounded=1;whiteSpace=wrap;html=1;fillColor=#f8cecc;strokeColor=#b85450;" parent="1" vertex="1">
          <mxGeometry x="43" y="1080" width="454" height="60" as="geometry" />
        </mxCell>
        <mxCell id="CO1UvkLrPfOnZ68Yw96--2" value="" style="rounded=1;whiteSpace=wrap;html=1;fillColor=#f8cecc;strokeColor=#b85450;" vertex="1" parent="1">
          <mxGeometry x="671" y="205" width="69" height="31" as="geometry" />
        </mxCell>
        <mxCell id="CO1UvkLrPfOnZ68Yw96--3" value="" style="rounded=1;whiteSpace=wrap;html=1;fillColor=#d5e8d4;strokeColor=#82b366;" vertex="1" parent="1">
          <mxGeometry x="673" y="253" width="69" height="31" as="geometry" />
        </mxCell>
        <mxCell id="CO1UvkLrPfOnZ68Yw96--4" value="" style="rounded=1;whiteSpace=wrap;html=1;fillColor=#e1d5e7;strokeColor=#9673a6;" vertex="1" parent="1">
          <mxGeometry x="671" y="309" width="69" height="31" as="geometry" />
        </mxCell>
        <mxCell id="CO1UvkLrPfOnZ68Yw96--5" value="Text" style="text;html=1;align=center;verticalAlign=middle;whiteSpace=wrap;rounded=0;" vertex="1" parent="1">
          <mxGeometry x="774" y="208" width="60" height="30" as="geometry" />
        </mxCell>
      </root>
    </mxGraphModel>
  </diagram>
</mxfile>
